<mxfile host="app.diagrams.net" modified="2023-12-16T09:42:07.100Z" agent="Mozilla/5.0 (X11; Linux x86_64) AppleWebKit/537.36 (KHTML, like Gecko) Chrome/120.0.0.0 Safari/537.36" etag="0jxhujmQWZHN9AVV-V2X" version="22.1.11" type="device">
  <diagram name="Page-1" id="16e2658f-23c8-b752-8be9-c03fbebb8bbe">
    <mxGraphModel dx="1593" dy="776" grid="1" gridSize="10" guides="1" tooltips="1" connect="1" arrows="1" fold="1" page="1" pageScale="1" pageWidth="1100" pageHeight="850" background="none" math="0" shadow="0">
      <root>
        <mxCell id="0" />
        <mxCell id="1" parent="0" />
        <mxCell id="HMnbTDJDtJ2RW0ANeaeE-1" value="" style="pointerEvents=1;verticalLabelPosition=bottom;shadow=0;dashed=0;align=center;html=1;verticalAlign=top;shape=mxgraph.electrical.signal_sources.dc_source_1;" parent="1" vertex="1">
          <mxGeometry x="130" y="310" width="70" height="75" as="geometry" />
        </mxCell>
        <mxCell id="HMnbTDJDtJ2RW0ANeaeE-2" value="" style="pointerEvents=1;verticalLabelPosition=bottom;shadow=0;dashed=0;align=center;html=1;verticalAlign=top;shape=mxgraph.electrical.signal_sources.dc_source_1;" parent="1" vertex="1">
          <mxGeometry x="130" y="490" width="70" height="75" as="geometry" />
        </mxCell>
        <mxCell id="HMnbTDJDtJ2RW0ANeaeE-3" style="edgeStyle=orthogonalEdgeStyle;rounded=0;orthogonalLoop=1;jettySize=auto;html=1;exitX=0.58;exitY=0.135;exitDx=0;exitDy=0;exitPerimeter=0;entryX=0.58;entryY=0.935;entryDx=0;entryDy=0;entryPerimeter=0;endArrow=none;endFill=0;" parent="1" source="HMnbTDJDtJ2RW0ANeaeE-2" target="HMnbTDJDtJ2RW0ANeaeE-1" edge="1">
          <mxGeometry relative="1" as="geometry" />
        </mxCell>
        <mxCell id="HMnbTDJDtJ2RW0ANeaeE-4" value="" style="endArrow=none;html=1;rounded=0;" parent="1" edge="1">
          <mxGeometry width="50" height="50" relative="1" as="geometry">
            <mxPoint x="150" y="340" as="sourcePoint" />
            <mxPoint x="190" y="340" as="targetPoint" />
          </mxGeometry>
        </mxCell>
        <mxCell id="HMnbTDJDtJ2RW0ANeaeE-5" value="" style="endArrow=none;html=1;rounded=0;" parent="1" edge="1">
          <mxGeometry width="50" height="50" relative="1" as="geometry">
            <mxPoint x="150" y="360" as="sourcePoint" />
            <mxPoint x="190" y="360" as="targetPoint" />
          </mxGeometry>
        </mxCell>
        <mxCell id="HMnbTDJDtJ2RW0ANeaeE-6" value="" style="endArrow=none;html=1;rounded=0;" parent="1" edge="1">
          <mxGeometry width="50" height="50" relative="1" as="geometry">
            <mxPoint x="150" y="520" as="sourcePoint" />
            <mxPoint x="190" y="520" as="targetPoint" />
          </mxGeometry>
        </mxCell>
        <mxCell id="HMnbTDJDtJ2RW0ANeaeE-7" value="" style="endArrow=none;html=1;rounded=0;" parent="1" edge="1">
          <mxGeometry width="50" height="50" relative="1" as="geometry">
            <mxPoint x="150" y="540" as="sourcePoint" />
            <mxPoint x="190" y="540" as="targetPoint" />
          </mxGeometry>
        </mxCell>
        <mxCell id="HMnbTDJDtJ2RW0ANeaeE-8" value="" style="pointerEvents=1;verticalLabelPosition=bottom;shadow=0;dashed=0;align=center;html=1;verticalAlign=top;shape=mxgraph.electrical.resistors.resistor_1;" parent="1" vertex="1">
          <mxGeometry x="370" y="630" width="100" height="20" as="geometry" />
        </mxCell>
        <mxCell id="HMnbTDJDtJ2RW0ANeaeE-20" style="edgeStyle=orthogonalEdgeStyle;rounded=0;orthogonalLoop=1;jettySize=auto;html=1;exitX=1;exitY=0.5;exitDx=0;exitDy=0;exitPerimeter=0;endArrow=oval;endFill=1;" parent="1" source="HMnbTDJDtJ2RW0ANeaeE-9" edge="1">
          <mxGeometry relative="1" as="geometry">
            <mxPoint x="760" y="480" as="targetPoint" />
          </mxGeometry>
        </mxCell>
        <mxCell id="HMnbTDJDtJ2RW0ANeaeE-9" value="" style="pointerEvents=1;verticalLabelPosition=bottom;shadow=0;dashed=0;align=center;html=1;verticalAlign=top;shape=mxgraph.electrical.resistors.resistor_1;" parent="1" vertex="1">
          <mxGeometry x="560" y="630" width="100" height="20" as="geometry" />
        </mxCell>
        <mxCell id="HMnbTDJDtJ2RW0ANeaeE-26" style="edgeStyle=orthogonalEdgeStyle;rounded=0;orthogonalLoop=1;jettySize=auto;html=1;exitX=0;exitY=0.5;exitDx=0;exitDy=0;exitPerimeter=0;endArrow=oval;endFill=1;" parent="1" source="HMnbTDJDtJ2RW0ANeaeE-10" edge="1">
          <mxGeometry relative="1" as="geometry">
            <mxPoint x="330" y="279.9999999999999" as="targetPoint" />
          </mxGeometry>
        </mxCell>
        <mxCell id="HMnbTDJDtJ2RW0ANeaeE-10" value="" style="pointerEvents=1;verticalLabelPosition=bottom;shadow=0;dashed=0;align=center;html=1;verticalAlign=top;shape=mxgraph.electrical.resistors.resistor_1;" parent="1" vertex="1">
          <mxGeometry x="380" y="470" width="100" height="20" as="geometry" />
        </mxCell>
        <mxCell id="HMnbTDJDtJ2RW0ANeaeE-11" value="" style="pointerEvents=1;verticalLabelPosition=bottom;shadow=0;dashed=0;align=center;html=1;verticalAlign=top;shape=mxgraph.electrical.resistors.resistor_1;" parent="1" vertex="1">
          <mxGeometry x="590" y="470" width="100" height="20" as="geometry" />
        </mxCell>
        <mxCell id="HMnbTDJDtJ2RW0ANeaeE-12" value="" style="pointerEvents=1;verticalLabelPosition=bottom;shadow=0;dashed=0;align=center;html=1;verticalAlign=top;shape=mxgraph.electrical.resistors.resistor_1;" parent="1" vertex="1">
          <mxGeometry x="380" y="270" width="100" height="20" as="geometry" />
        </mxCell>
        <mxCell id="HMnbTDJDtJ2RW0ANeaeE-24" style="edgeStyle=orthogonalEdgeStyle;rounded=0;orthogonalLoop=1;jettySize=auto;html=1;exitX=0;exitY=0.5;exitDx=0;exitDy=0;exitPerimeter=0;endArrow=oval;endFill=1;" parent="1" source="HMnbTDJDtJ2RW0ANeaeE-13" edge="1">
          <mxGeometry relative="1" as="geometry">
            <mxPoint x="540.3333333333335" y="279.9999999999999" as="targetPoint" />
          </mxGeometry>
        </mxCell>
        <mxCell id="HMnbTDJDtJ2RW0ANeaeE-27" style="edgeStyle=orthogonalEdgeStyle;rounded=0;orthogonalLoop=1;jettySize=auto;html=1;exitX=1;exitY=0.5;exitDx=0;exitDy=0;exitPerimeter=0;endArrow=oval;endFill=1;" parent="1" source="HMnbTDJDtJ2RW0ANeaeE-13" edge="1">
          <mxGeometry relative="1" as="geometry">
            <mxPoint x="540.3333333333335" y="480" as="targetPoint" />
          </mxGeometry>
        </mxCell>
        <mxCell id="HMnbTDJDtJ2RW0ANeaeE-13" value="" style="pointerEvents=1;verticalLabelPosition=bottom;shadow=0;dashed=0;align=center;html=1;verticalAlign=top;shape=mxgraph.electrical.resistors.resistor_1;rotation=90;" parent="1" vertex="1">
          <mxGeometry x="490" y="360" width="100" height="20" as="geometry" />
        </mxCell>
        <mxCell id="HMnbTDJDtJ2RW0ANeaeE-14" value="" style="pointerEvents=1;verticalLabelPosition=bottom;shadow=0;dashed=0;align=center;html=1;verticalAlign=top;shape=mxgraph.electrical.resistors.resistor_1;rotation=90;" parent="1" vertex="1">
          <mxGeometry x="710" y="360" width="100" height="20" as="geometry" />
        </mxCell>
        <mxCell id="HMnbTDJDtJ2RW0ANeaeE-19" style="edgeStyle=orthogonalEdgeStyle;rounded=0;orthogonalLoop=1;jettySize=auto;html=1;exitX=1;exitY=0.5;exitDx=0;exitDy=0;exitPerimeter=0;endArrow=none;endFill=0;" parent="1" source="HMnbTDJDtJ2RW0ANeaeE-15" edge="1">
          <mxGeometry relative="1" as="geometry">
            <mxPoint x="760" y="480" as="targetPoint" />
            <Array as="points">
              <mxPoint x="850" y="480" />
            </Array>
          </mxGeometry>
        </mxCell>
        <mxCell id="HMnbTDJDtJ2RW0ANeaeE-22" style="edgeStyle=orthogonalEdgeStyle;rounded=0;orthogonalLoop=1;jettySize=auto;html=1;exitX=0;exitY=0.5;exitDx=0;exitDy=0;exitPerimeter=0;endArrow=oval;endFill=1;" parent="1" source="HMnbTDJDtJ2RW0ANeaeE-15" edge="1">
          <mxGeometry relative="1" as="geometry">
            <mxPoint x="760" y="279.9999999999999" as="targetPoint" />
            <Array as="points">
              <mxPoint x="850" y="280" />
            </Array>
          </mxGeometry>
        </mxCell>
        <mxCell id="HMnbTDJDtJ2RW0ANeaeE-15" value="" style="pointerEvents=1;verticalLabelPosition=bottom;shadow=0;dashed=0;align=center;html=1;verticalAlign=top;shape=mxgraph.electrical.resistors.resistor_1;rotation=90;" parent="1" vertex="1">
          <mxGeometry x="800" y="360" width="100" height="20" as="geometry" />
        </mxCell>
        <mxCell id="HMnbTDJDtJ2RW0ANeaeE-16" style="edgeStyle=orthogonalEdgeStyle;rounded=0;orthogonalLoop=1;jettySize=auto;html=1;exitX=0.58;exitY=0.935;exitDx=0;exitDy=0;exitPerimeter=0;entryX=0;entryY=0.5;entryDx=0;entryDy=0;entryPerimeter=0;endArrow=none;endFill=0;" parent="1" source="HMnbTDJDtJ2RW0ANeaeE-2" target="HMnbTDJDtJ2RW0ANeaeE-8" edge="1">
          <mxGeometry relative="1" as="geometry">
            <Array as="points">
              <mxPoint x="171" y="640" />
            </Array>
          </mxGeometry>
        </mxCell>
        <mxCell id="HMnbTDJDtJ2RW0ANeaeE-17" style="edgeStyle=orthogonalEdgeStyle;rounded=0;orthogonalLoop=1;jettySize=auto;html=1;exitX=1;exitY=0.5;exitDx=0;exitDy=0;exitPerimeter=0;entryX=0;entryY=0.5;entryDx=0;entryDy=0;entryPerimeter=0;endArrow=none;endFill=0;" parent="1" source="HMnbTDJDtJ2RW0ANeaeE-8" target="HMnbTDJDtJ2RW0ANeaeE-9" edge="1">
          <mxGeometry relative="1" as="geometry" />
        </mxCell>
        <mxCell id="HMnbTDJDtJ2RW0ANeaeE-18" style="edgeStyle=orthogonalEdgeStyle;rounded=0;orthogonalLoop=1;jettySize=auto;html=1;exitX=1;exitY=0.5;exitDx=0;exitDy=0;exitPerimeter=0;entryX=1;entryY=0.5;entryDx=0;entryDy=0;entryPerimeter=0;endArrow=none;endFill=0;" parent="1" source="HMnbTDJDtJ2RW0ANeaeE-11" target="HMnbTDJDtJ2RW0ANeaeE-14" edge="1">
          <mxGeometry relative="1" as="geometry" />
        </mxCell>
        <mxCell id="HMnbTDJDtJ2RW0ANeaeE-21" style="edgeStyle=orthogonalEdgeStyle;rounded=0;orthogonalLoop=1;jettySize=auto;html=1;exitX=1;exitY=0.5;exitDx=0;exitDy=0;exitPerimeter=0;entryX=0;entryY=0.5;entryDx=0;entryDy=0;entryPerimeter=0;endArrow=none;endFill=0;" parent="1" source="HMnbTDJDtJ2RW0ANeaeE-12" target="HMnbTDJDtJ2RW0ANeaeE-14" edge="1">
          <mxGeometry relative="1" as="geometry" />
        </mxCell>
        <mxCell id="HMnbTDJDtJ2RW0ANeaeE-23" style="edgeStyle=orthogonalEdgeStyle;rounded=0;orthogonalLoop=1;jettySize=auto;html=1;exitX=0.58;exitY=0.135;exitDx=0;exitDy=0;exitPerimeter=0;entryX=0;entryY=0.5;entryDx=0;entryDy=0;entryPerimeter=0;endArrow=none;endFill=0;" parent="1" source="HMnbTDJDtJ2RW0ANeaeE-1" target="HMnbTDJDtJ2RW0ANeaeE-12" edge="1">
          <mxGeometry relative="1" as="geometry">
            <Array as="points">
              <mxPoint x="171" y="280" />
            </Array>
          </mxGeometry>
        </mxCell>
        <mxCell id="HMnbTDJDtJ2RW0ANeaeE-25" style="edgeStyle=orthogonalEdgeStyle;rounded=0;orthogonalLoop=1;jettySize=auto;html=1;exitX=1;exitY=0.5;exitDx=0;exitDy=0;exitPerimeter=0;entryX=0;entryY=0.5;entryDx=0;entryDy=0;entryPerimeter=0;endArrow=none;endFill=0;" parent="1" source="HMnbTDJDtJ2RW0ANeaeE-10" target="HMnbTDJDtJ2RW0ANeaeE-11" edge="1">
          <mxGeometry relative="1" as="geometry" />
        </mxCell>
        <mxCell id="HMnbTDJDtJ2RW0ANeaeE-28" value="&lt;font style=&quot;font-size: 18px;&quot;&gt;U&lt;sub&gt;1&lt;/sub&gt;&lt;/font&gt;" style="text;html=1;strokeColor=none;fillColor=none;align=center;verticalAlign=middle;whiteSpace=wrap;rounded=0;" parent="1" vertex="1">
          <mxGeometry x="70" y="332.5" width="60" height="30" as="geometry" />
        </mxCell>
        <mxCell id="HMnbTDJDtJ2RW0ANeaeE-29" value="&lt;font style=&quot;font-size: 18px;&quot;&gt;U&lt;sub&gt;2&lt;/sub&gt;&lt;/font&gt;" style="text;html=1;strokeColor=none;fillColor=none;align=center;verticalAlign=middle;whiteSpace=wrap;rounded=0;" parent="1" vertex="1">
          <mxGeometry x="60" y="512.5" width="60" height="30" as="geometry" />
        </mxCell>
        <mxCell id="HMnbTDJDtJ2RW0ANeaeE-30" value="&lt;span style=&quot;font-size: 18px;&quot;&gt;R&lt;sub&gt;1&lt;/sub&gt;&lt;/span&gt;" style="text;html=1;strokeColor=none;fillColor=none;align=center;verticalAlign=middle;whiteSpace=wrap;rounded=0;" parent="1" vertex="1">
          <mxGeometry x="400" y="240" width="60" height="30" as="geometry" />
        </mxCell>
        <mxCell id="HMnbTDJDtJ2RW0ANeaeE-31" value="&lt;span style=&quot;font-size: 18px;&quot;&gt;R&lt;/span&gt;&lt;span style=&quot;font-size: 15px;&quot;&gt;&lt;sub&gt;2&lt;/sub&gt;&lt;/span&gt;" style="text;html=1;strokeColor=none;fillColor=none;align=center;verticalAlign=middle;whiteSpace=wrap;rounded=0;" parent="1" vertex="1">
          <mxGeometry x="400" y="440" width="60" height="30" as="geometry" />
        </mxCell>
        <mxCell id="HMnbTDJDtJ2RW0ANeaeE-32" value="&lt;span style=&quot;font-size: 18px;&quot;&gt;R&lt;/span&gt;&lt;span style=&quot;font-size: 15px;&quot;&gt;&lt;sub&gt;3&lt;/sub&gt;&lt;/span&gt;" style="text;html=1;strokeColor=none;fillColor=none;align=center;verticalAlign=middle;whiteSpace=wrap;rounded=0;" parent="1" vertex="1">
          <mxGeometry x="540" y="355" width="60" height="30" as="geometry" />
        </mxCell>
        <mxCell id="HMnbTDJDtJ2RW0ANeaeE-33" value="&lt;span style=&quot;font-size: 18px;&quot;&gt;R&lt;/span&gt;&lt;span style=&quot;font-size: 15px;&quot;&gt;&lt;sub&gt;4&lt;/sub&gt;&lt;/span&gt;" style="text;html=1;strokeColor=none;fillColor=none;align=center;verticalAlign=middle;whiteSpace=wrap;rounded=0;" parent="1" vertex="1">
          <mxGeometry x="610" y="440" width="60" height="30" as="geometry" />
        </mxCell>
        <mxCell id="HMnbTDJDtJ2RW0ANeaeE-34" value="&lt;span style=&quot;font-size: 18px;&quot;&gt;R&lt;/span&gt;&lt;span style=&quot;font-size: 15px;&quot;&gt;&lt;sub&gt;5&lt;/sub&gt;&lt;/span&gt;" style="text;html=1;strokeColor=none;fillColor=none;align=center;verticalAlign=middle;whiteSpace=wrap;rounded=0;" parent="1" vertex="1">
          <mxGeometry x="700" y="350" width="60" height="30" as="geometry" />
        </mxCell>
        <mxCell id="HMnbTDJDtJ2RW0ANeaeE-35" value="&lt;span style=&quot;font-size: 18px;&quot;&gt;R&lt;/span&gt;&lt;span style=&quot;font-size: 15px;&quot;&gt;&lt;sub&gt;6&lt;/sub&gt;&lt;/span&gt;" style="text;html=1;strokeColor=none;fillColor=none;align=center;verticalAlign=middle;whiteSpace=wrap;rounded=0;" parent="1" vertex="1">
          <mxGeometry x="850" y="360" width="60" height="30" as="geometry" />
        </mxCell>
        <mxCell id="HMnbTDJDtJ2RW0ANeaeE-36" value="&lt;span style=&quot;font-size: 18px;&quot;&gt;R&lt;/span&gt;&lt;span style=&quot;font-size: 12.5px;&quot;&gt;&lt;sub&gt;7&lt;/sub&gt;&lt;/span&gt;" style="text;html=1;strokeColor=none;fillColor=none;align=center;verticalAlign=middle;whiteSpace=wrap;rounded=0;" parent="1" vertex="1">
          <mxGeometry x="390" y="600" width="60" height="30" as="geometry" />
        </mxCell>
        <mxCell id="HMnbTDJDtJ2RW0ANeaeE-37" value="&lt;span style=&quot;font-size: 18px;&quot;&gt;R&lt;/span&gt;&lt;span style=&quot;font-size: 12.5px;&quot;&gt;&lt;sub&gt;8&lt;/sub&gt;&lt;/span&gt;" style="text;html=1;strokeColor=none;fillColor=none;align=center;verticalAlign=middle;whiteSpace=wrap;rounded=0;" parent="1" vertex="1">
          <mxGeometry x="580" y="600" width="60" height="30" as="geometry" />
        </mxCell>
        <mxCell id="HMnbTDJDtJ2RW0ANeaeE-38" value="" style="pointerEvents=1;verticalLabelPosition=bottom;shadow=0;dashed=0;align=center;html=1;verticalAlign=top;shape=mxgraph.electrical.signal_sources.dc_source_1;" parent="1" vertex="1">
          <mxGeometry x="160" y="915" width="70" height="75" as="geometry" />
        </mxCell>
        <mxCell id="HMnbTDJDtJ2RW0ANeaeE-41" value="" style="endArrow=none;html=1;rounded=0;" parent="1" edge="1">
          <mxGeometry width="50" height="50" relative="1" as="geometry">
            <mxPoint x="180" y="945" as="sourcePoint" />
            <mxPoint x="220" y="945" as="targetPoint" />
          </mxGeometry>
        </mxCell>
        <mxCell id="HMnbTDJDtJ2RW0ANeaeE-42" value="" style="endArrow=none;html=1;rounded=0;" parent="1" edge="1">
          <mxGeometry width="50" height="50" relative="1" as="geometry">
            <mxPoint x="180" y="965" as="sourcePoint" />
            <mxPoint x="220" y="965" as="targetPoint" />
          </mxGeometry>
        </mxCell>
        <mxCell id="HMnbTDJDtJ2RW0ANeaeE-75" style="edgeStyle=orthogonalEdgeStyle;rounded=0;orthogonalLoop=1;jettySize=auto;html=1;exitX=1;exitY=0.5;exitDx=0;exitDy=0;exitPerimeter=0;endArrow=none;endFill=0;" parent="1" source="HMnbTDJDtJ2RW0ANeaeE-45" edge="1">
          <mxGeometry relative="1" as="geometry">
            <mxPoint x="790" y="1010" as="targetPoint" />
          </mxGeometry>
        </mxCell>
        <mxCell id="HMnbTDJDtJ2RW0ANeaeE-45" value="" style="pointerEvents=1;verticalLabelPosition=bottom;shadow=0;dashed=0;align=center;html=1;verticalAlign=top;shape=mxgraph.electrical.resistors.resistor_1;" parent="1" vertex="1">
          <mxGeometry x="400" y="1110" width="100" height="20" as="geometry" />
        </mxCell>
        <mxCell id="HMnbTDJDtJ2RW0ANeaeE-48" style="edgeStyle=orthogonalEdgeStyle;rounded=0;orthogonalLoop=1;jettySize=auto;html=1;exitX=0;exitY=0.5;exitDx=0;exitDy=0;exitPerimeter=0;endArrow=oval;endFill=1;" parent="1" source="HMnbTDJDtJ2RW0ANeaeE-49" edge="1">
          <mxGeometry relative="1" as="geometry">
            <mxPoint x="360" y="809.9999999999999" as="targetPoint" />
          </mxGeometry>
        </mxCell>
        <mxCell id="HMnbTDJDtJ2RW0ANeaeE-49" value="" style="pointerEvents=1;verticalLabelPosition=bottom;shadow=0;dashed=0;align=center;html=1;verticalAlign=top;shape=mxgraph.electrical.resistors.resistor_1;" parent="1" vertex="1">
          <mxGeometry x="410" y="1000" width="100" height="20" as="geometry" />
        </mxCell>
        <mxCell id="HMnbTDJDtJ2RW0ANeaeE-50" value="" style="pointerEvents=1;verticalLabelPosition=bottom;shadow=0;dashed=0;align=center;html=1;verticalAlign=top;shape=mxgraph.electrical.resistors.resistor_1;" parent="1" vertex="1">
          <mxGeometry x="620" y="1000" width="100" height="20" as="geometry" />
        </mxCell>
        <mxCell id="HMnbTDJDtJ2RW0ANeaeE-51" value="" style="pointerEvents=1;verticalLabelPosition=bottom;shadow=0;dashed=0;align=center;html=1;verticalAlign=top;shape=mxgraph.electrical.resistors.resistor_1;" parent="1" vertex="1">
          <mxGeometry x="410" y="800" width="100" height="20" as="geometry" />
        </mxCell>
        <mxCell id="HMnbTDJDtJ2RW0ANeaeE-52" style="edgeStyle=orthogonalEdgeStyle;rounded=0;orthogonalLoop=1;jettySize=auto;html=1;exitX=0;exitY=0.5;exitDx=0;exitDy=0;exitPerimeter=0;endArrow=oval;endFill=1;" parent="1" source="HMnbTDJDtJ2RW0ANeaeE-54" edge="1">
          <mxGeometry relative="1" as="geometry">
            <mxPoint x="570.3333333333335" y="809.9999999999999" as="targetPoint" />
          </mxGeometry>
        </mxCell>
        <mxCell id="HMnbTDJDtJ2RW0ANeaeE-53" style="edgeStyle=orthogonalEdgeStyle;rounded=0;orthogonalLoop=1;jettySize=auto;html=1;exitX=1;exitY=0.5;exitDx=0;exitDy=0;exitPerimeter=0;endArrow=oval;endFill=1;" parent="1" source="HMnbTDJDtJ2RW0ANeaeE-54" edge="1">
          <mxGeometry relative="1" as="geometry">
            <mxPoint x="570.3333333333335" y="1010" as="targetPoint" />
          </mxGeometry>
        </mxCell>
        <mxCell id="HMnbTDJDtJ2RW0ANeaeE-54" value="" style="pointerEvents=1;verticalLabelPosition=bottom;shadow=0;dashed=0;align=center;html=1;verticalAlign=top;shape=mxgraph.electrical.resistors.resistor_1;rotation=90;" parent="1" vertex="1">
          <mxGeometry x="520" y="890" width="100" height="20" as="geometry" />
        </mxCell>
        <mxCell id="HMnbTDJDtJ2RW0ANeaeE-55" value="" style="pointerEvents=1;verticalLabelPosition=bottom;shadow=0;dashed=0;align=center;html=1;verticalAlign=top;shape=mxgraph.electrical.resistors.resistor_1;rotation=90;" parent="1" vertex="1">
          <mxGeometry x="740" y="890" width="100" height="20" as="geometry" />
        </mxCell>
        <mxCell id="HMnbTDJDtJ2RW0ANeaeE-59" style="edgeStyle=orthogonalEdgeStyle;rounded=0;orthogonalLoop=1;jettySize=auto;html=1;exitX=0.58;exitY=0.935;exitDx=0;exitDy=0;exitPerimeter=0;entryX=0;entryY=0.5;entryDx=0;entryDy=0;entryPerimeter=0;endArrow=none;endFill=0;" parent="1" source="HMnbTDJDtJ2RW0ANeaeE-38" target="HMnbTDJDtJ2RW0ANeaeE-45" edge="1">
          <mxGeometry relative="1" as="geometry">
            <Array as="points">
              <mxPoint x="201" y="1120" />
            </Array>
            <mxPoint x="200.5999999999999" y="1090.1249999999998" as="sourcePoint" />
          </mxGeometry>
        </mxCell>
        <mxCell id="HMnbTDJDtJ2RW0ANeaeE-61" style="edgeStyle=orthogonalEdgeStyle;rounded=0;orthogonalLoop=1;jettySize=auto;html=1;exitX=1;exitY=0.5;exitDx=0;exitDy=0;exitPerimeter=0;entryX=1;entryY=0.5;entryDx=0;entryDy=0;entryPerimeter=0;endArrow=none;endFill=0;" parent="1" source="HMnbTDJDtJ2RW0ANeaeE-50" target="HMnbTDJDtJ2RW0ANeaeE-55" edge="1">
          <mxGeometry relative="1" as="geometry" />
        </mxCell>
        <mxCell id="HMnbTDJDtJ2RW0ANeaeE-62" style="edgeStyle=orthogonalEdgeStyle;rounded=0;orthogonalLoop=1;jettySize=auto;html=1;exitX=1;exitY=0.5;exitDx=0;exitDy=0;exitPerimeter=0;entryX=0;entryY=0.5;entryDx=0;entryDy=0;entryPerimeter=0;endArrow=none;endFill=0;" parent="1" source="HMnbTDJDtJ2RW0ANeaeE-51" target="HMnbTDJDtJ2RW0ANeaeE-55" edge="1">
          <mxGeometry relative="1" as="geometry" />
        </mxCell>
        <mxCell id="HMnbTDJDtJ2RW0ANeaeE-63" style="edgeStyle=orthogonalEdgeStyle;rounded=0;orthogonalLoop=1;jettySize=auto;html=1;exitX=0.58;exitY=0.135;exitDx=0;exitDy=0;exitPerimeter=0;entryX=0;entryY=0.5;entryDx=0;entryDy=0;entryPerimeter=0;endArrow=none;endFill=0;" parent="1" source="HMnbTDJDtJ2RW0ANeaeE-38" target="HMnbTDJDtJ2RW0ANeaeE-51" edge="1">
          <mxGeometry relative="1" as="geometry">
            <Array as="points">
              <mxPoint x="201" y="810" />
            </Array>
          </mxGeometry>
        </mxCell>
        <mxCell id="HMnbTDJDtJ2RW0ANeaeE-64" style="edgeStyle=orthogonalEdgeStyle;rounded=0;orthogonalLoop=1;jettySize=auto;html=1;exitX=1;exitY=0.5;exitDx=0;exitDy=0;exitPerimeter=0;entryX=0;entryY=0.5;entryDx=0;entryDy=0;entryPerimeter=0;endArrow=none;endFill=0;" parent="1" source="HMnbTDJDtJ2RW0ANeaeE-49" target="HMnbTDJDtJ2RW0ANeaeE-50" edge="1">
          <mxGeometry relative="1" as="geometry" />
        </mxCell>
        <mxCell id="HMnbTDJDtJ2RW0ANeaeE-65" value="&lt;font style=&quot;font-size: 18px;&quot;&gt;U&lt;sub&gt;12&lt;/sub&gt;&lt;/font&gt;" style="text;html=1;strokeColor=none;fillColor=none;align=center;verticalAlign=middle;whiteSpace=wrap;rounded=0;" parent="1" vertex="1">
          <mxGeometry x="90" y="937.5" width="60" height="30" as="geometry" />
        </mxCell>
        <mxCell id="HMnbTDJDtJ2RW0ANeaeE-67" value="&lt;span style=&quot;font-size: 18px;&quot;&gt;R&lt;sub&gt;1&lt;/sub&gt;&lt;/span&gt;" style="text;html=1;strokeColor=none;fillColor=none;align=center;verticalAlign=middle;whiteSpace=wrap;rounded=0;" parent="1" vertex="1">
          <mxGeometry x="430" y="770" width="60" height="30" as="geometry" />
        </mxCell>
        <mxCell id="HMnbTDJDtJ2RW0ANeaeE-68" value="&lt;span style=&quot;font-size: 18px;&quot;&gt;R&lt;/span&gt;&lt;span style=&quot;font-size: 15px;&quot;&gt;&lt;sub&gt;2&lt;/sub&gt;&lt;/span&gt;" style="text;html=1;strokeColor=none;fillColor=none;align=center;verticalAlign=middle;whiteSpace=wrap;rounded=0;" parent="1" vertex="1">
          <mxGeometry x="430" y="970" width="60" height="30" as="geometry" />
        </mxCell>
        <mxCell id="HMnbTDJDtJ2RW0ANeaeE-69" value="&lt;span style=&quot;font-size: 18px;&quot;&gt;R&lt;/span&gt;&lt;span style=&quot;font-size: 15px;&quot;&gt;&lt;sub&gt;3&lt;/sub&gt;&lt;/span&gt;" style="text;html=1;strokeColor=none;fillColor=none;align=center;verticalAlign=middle;whiteSpace=wrap;rounded=0;" parent="1" vertex="1">
          <mxGeometry x="570" y="885" width="60" height="30" as="geometry" />
        </mxCell>
        <mxCell id="HMnbTDJDtJ2RW0ANeaeE-70" value="&lt;span style=&quot;font-size: 18px;&quot;&gt;R&lt;/span&gt;&lt;span style=&quot;font-size: 15px;&quot;&gt;&lt;sub&gt;4&lt;/sub&gt;&lt;/span&gt;" style="text;html=1;strokeColor=none;fillColor=none;align=center;verticalAlign=middle;whiteSpace=wrap;rounded=0;" parent="1" vertex="1">
          <mxGeometry x="640" y="970" width="60" height="30" as="geometry" />
        </mxCell>
        <mxCell id="HMnbTDJDtJ2RW0ANeaeE-71" value="&lt;span style=&quot;font-size: 18px;&quot;&gt;R&lt;/span&gt;&lt;span style=&quot;font-size: 15px;&quot;&gt;&lt;sub&gt;56&lt;/sub&gt;&lt;/span&gt;" style="text;html=1;strokeColor=none;fillColor=none;align=center;verticalAlign=middle;whiteSpace=wrap;rounded=0;" parent="1" vertex="1">
          <mxGeometry x="800" y="880" width="60" height="30" as="geometry" />
        </mxCell>
        <mxCell id="HMnbTDJDtJ2RW0ANeaeE-74" value="&lt;span style=&quot;font-size: 18px;&quot;&gt;R&lt;/span&gt;&lt;span style=&quot;font-size: 12.5px;&quot;&gt;&lt;sub&gt;78&lt;/sub&gt;&lt;/span&gt;" style="text;html=1;strokeColor=none;fillColor=none;align=center;verticalAlign=middle;whiteSpace=wrap;rounded=0;" parent="1" vertex="1">
          <mxGeometry x="421" y="1080" width="49" height="30" as="geometry" />
        </mxCell>
        <mxCell id="HMnbTDJDtJ2RW0ANeaeE-76" value="" style="endArrow=classic;html=1;rounded=0;" parent="1" edge="1">
          <mxGeometry width="50" height="50" relative="1" as="geometry">
            <mxPoint x="119.58" y="315" as="sourcePoint" />
            <mxPoint x="119.58" y="385" as="targetPoint" />
          </mxGeometry>
        </mxCell>
        <mxCell id="HMnbTDJDtJ2RW0ANeaeE-77" value="" style="endArrow=classic;html=1;rounded=0;" parent="1" edge="1">
          <mxGeometry width="50" height="50" relative="1" as="geometry">
            <mxPoint x="119.57999999999998" y="495" as="sourcePoint" />
            <mxPoint x="119.57999999999998" y="565" as="targetPoint" />
          </mxGeometry>
        </mxCell>
        <mxCell id="ILTzUQyafyQ3M-tLoAho-1" value="" style="pointerEvents=1;verticalLabelPosition=bottom;shadow=0;dashed=0;align=center;html=1;verticalAlign=top;shape=mxgraph.electrical.signal_sources.dc_source_1;" vertex="1" parent="1">
          <mxGeometry x="190" y="1385" width="70" height="75" as="geometry" />
        </mxCell>
        <mxCell id="ILTzUQyafyQ3M-tLoAho-2" value="" style="endArrow=none;html=1;rounded=0;" edge="1" parent="1">
          <mxGeometry width="50" height="50" relative="1" as="geometry">
            <mxPoint x="210" y="1415" as="sourcePoint" />
            <mxPoint x="250" y="1415" as="targetPoint" />
          </mxGeometry>
        </mxCell>
        <mxCell id="ILTzUQyafyQ3M-tLoAho-3" value="" style="endArrow=none;html=1;rounded=0;" edge="1" parent="1">
          <mxGeometry width="50" height="50" relative="1" as="geometry">
            <mxPoint x="210" y="1435" as="sourcePoint" />
            <mxPoint x="250" y="1435" as="targetPoint" />
          </mxGeometry>
        </mxCell>
        <mxCell id="ILTzUQyafyQ3M-tLoAho-4" style="edgeStyle=orthogonalEdgeStyle;rounded=0;orthogonalLoop=1;jettySize=auto;html=1;exitX=1;exitY=0.5;exitDx=0;exitDy=0;exitPerimeter=0;endArrow=none;endFill=0;" edge="1" parent="1" source="ILTzUQyafyQ3M-tLoAho-5">
          <mxGeometry relative="1" as="geometry">
            <mxPoint x="820" y="1410" as="targetPoint" />
          </mxGeometry>
        </mxCell>
        <mxCell id="ILTzUQyafyQ3M-tLoAho-5" value="" style="pointerEvents=1;verticalLabelPosition=bottom;shadow=0;dashed=0;align=center;html=1;verticalAlign=top;shape=mxgraph.electrical.resistors.resistor_1;" vertex="1" parent="1">
          <mxGeometry x="430" y="1580" width="100" height="20" as="geometry" />
        </mxCell>
        <mxCell id="ILTzUQyafyQ3M-tLoAho-6" style="rounded=0;orthogonalLoop=1;jettySize=auto;html=1;exitX=0;exitY=0.5;exitDx=0;exitDy=0;exitPerimeter=0;endArrow=oval;endFill=1;entryX=1;entryY=0.5;entryDx=0;entryDy=0;entryPerimeter=0;" edge="1" parent="1" source="ILTzUQyafyQ3M-tLoAho-7" target="ILTzUQyafyQ3M-tLoAho-26">
          <mxGeometry relative="1" as="geometry">
            <mxPoint x="390" y="1340" as="targetPoint" />
          </mxGeometry>
        </mxCell>
        <mxCell id="ILTzUQyafyQ3M-tLoAho-28" style="edgeStyle=orthogonalEdgeStyle;rounded=0;orthogonalLoop=1;jettySize=auto;html=1;exitX=1;exitY=0.5;exitDx=0;exitDy=0;exitPerimeter=0;endArrow=oval;endFill=1;" edge="1" parent="1" source="ILTzUQyafyQ3M-tLoAho-7">
          <mxGeometry relative="1" as="geometry">
            <mxPoint x="600" y="1410" as="targetPoint" />
          </mxGeometry>
        </mxCell>
        <mxCell id="ILTzUQyafyQ3M-tLoAho-7" value="" style="pointerEvents=1;verticalLabelPosition=bottom;shadow=0;dashed=0;align=center;html=1;verticalAlign=top;shape=mxgraph.electrical.resistors.resistor_1;" vertex="1" parent="1">
          <mxGeometry x="445" y="1400" width="100" height="20" as="geometry" />
        </mxCell>
        <mxCell id="ILTzUQyafyQ3M-tLoAho-29" style="edgeStyle=orthogonalEdgeStyle;rounded=0;orthogonalLoop=1;jettySize=auto;html=1;exitX=0;exitY=0.5;exitDx=0;exitDy=0;exitPerimeter=0;endArrow=none;endFill=0;" edge="1" parent="1" source="ILTzUQyafyQ3M-tLoAho-8">
          <mxGeometry relative="1" as="geometry">
            <mxPoint x="600" y="1410" as="targetPoint" />
          </mxGeometry>
        </mxCell>
        <mxCell id="ILTzUQyafyQ3M-tLoAho-8" value="" style="pointerEvents=1;verticalLabelPosition=bottom;shadow=0;dashed=0;align=center;html=1;verticalAlign=top;shape=mxgraph.electrical.resistors.resistor_1;" vertex="1" parent="1">
          <mxGeometry x="655" y="1400" width="100" height="20" as="geometry" />
        </mxCell>
        <mxCell id="ILTzUQyafyQ3M-tLoAho-27" style="rounded=0;orthogonalLoop=1;jettySize=auto;html=1;exitX=0;exitY=0.5;exitDx=0;exitDy=0;exitPerimeter=0;entryX=1;entryY=0.5;entryDx=0;entryDy=0;entryPerimeter=0;endArrow=none;endFill=0;" edge="1" parent="1" source="ILTzUQyafyQ3M-tLoAho-9" target="ILTzUQyafyQ3M-tLoAho-26">
          <mxGeometry relative="1" as="geometry">
            <mxPoint x="400" y="1320" as="targetPoint" />
          </mxGeometry>
        </mxCell>
        <mxCell id="ILTzUQyafyQ3M-tLoAho-30" style="edgeStyle=orthogonalEdgeStyle;rounded=0;orthogonalLoop=1;jettySize=auto;html=1;exitX=1;exitY=0.5;exitDx=0;exitDy=0;exitPerimeter=0;endArrow=oval;endFill=1;" edge="1" parent="1" source="ILTzUQyafyQ3M-tLoAho-9">
          <mxGeometry relative="1" as="geometry">
            <mxPoint x="600" y="1280" as="targetPoint" />
          </mxGeometry>
        </mxCell>
        <mxCell id="ILTzUQyafyQ3M-tLoAho-9" value="" style="pointerEvents=1;verticalLabelPosition=bottom;shadow=0;dashed=0;align=center;html=1;verticalAlign=top;shape=mxgraph.electrical.resistors.resistor_1;" vertex="1" parent="1">
          <mxGeometry x="440" y="1270" width="100" height="20" as="geometry" />
        </mxCell>
        <mxCell id="ILTzUQyafyQ3M-tLoAho-31" style="edgeStyle=orthogonalEdgeStyle;rounded=0;orthogonalLoop=1;jettySize=auto;html=1;exitX=0;exitY=0.5;exitDx=0;exitDy=0;exitPerimeter=0;endArrow=none;endFill=0;" edge="1" parent="1" source="ILTzUQyafyQ3M-tLoAho-13">
          <mxGeometry relative="1" as="geometry">
            <mxPoint x="590" y="1280" as="targetPoint" />
            <Array as="points">
              <mxPoint x="820" y="1280" />
            </Array>
          </mxGeometry>
        </mxCell>
        <mxCell id="ILTzUQyafyQ3M-tLoAho-13" value="" style="pointerEvents=1;verticalLabelPosition=bottom;shadow=0;dashed=0;align=center;html=1;verticalAlign=top;shape=mxgraph.electrical.resistors.resistor_1;rotation=90;" vertex="1" parent="1">
          <mxGeometry x="770" y="1340" width="100" height="20" as="geometry" />
        </mxCell>
        <mxCell id="ILTzUQyafyQ3M-tLoAho-14" style="edgeStyle=orthogonalEdgeStyle;rounded=0;orthogonalLoop=1;jettySize=auto;html=1;exitX=0.58;exitY=0.935;exitDx=0;exitDy=0;exitPerimeter=0;entryX=0;entryY=0.5;entryDx=0;entryDy=0;entryPerimeter=0;endArrow=none;endFill=0;" edge="1" parent="1" source="ILTzUQyafyQ3M-tLoAho-1" target="ILTzUQyafyQ3M-tLoAho-5">
          <mxGeometry relative="1" as="geometry">
            <Array as="points">
              <mxPoint x="231" y="1590" />
            </Array>
            <mxPoint x="230.5999999999999" y="1560.1249999999998" as="sourcePoint" />
          </mxGeometry>
        </mxCell>
        <mxCell id="ILTzUQyafyQ3M-tLoAho-15" style="edgeStyle=orthogonalEdgeStyle;rounded=0;orthogonalLoop=1;jettySize=auto;html=1;exitX=1;exitY=0.5;exitDx=0;exitDy=0;exitPerimeter=0;entryX=1;entryY=0.5;entryDx=0;entryDy=0;entryPerimeter=0;endArrow=none;endFill=0;" edge="1" parent="1" source="ILTzUQyafyQ3M-tLoAho-8" target="ILTzUQyafyQ3M-tLoAho-13">
          <mxGeometry relative="1" as="geometry">
            <Array as="points">
              <mxPoint x="820" y="1410" />
            </Array>
          </mxGeometry>
        </mxCell>
        <mxCell id="ILTzUQyafyQ3M-tLoAho-19" value="&lt;font style=&quot;font-size: 18px;&quot;&gt;U&lt;sub&gt;12&lt;/sub&gt;&lt;/font&gt;" style="text;html=1;strokeColor=none;fillColor=none;align=center;verticalAlign=middle;whiteSpace=wrap;rounded=0;" vertex="1" parent="1">
          <mxGeometry x="120" y="1407.5" width="60" height="30" as="geometry" />
        </mxCell>
        <mxCell id="ILTzUQyafyQ3M-tLoAho-20" value="&lt;span style=&quot;font-size: 18px;&quot;&gt;R&lt;sub&gt;B&lt;/sub&gt;&lt;/span&gt;" style="text;html=1;strokeColor=none;fillColor=none;align=center;verticalAlign=middle;whiteSpace=wrap;rounded=0;" vertex="1" parent="1">
          <mxGeometry x="460" y="1240" width="60" height="30" as="geometry" />
        </mxCell>
        <mxCell id="ILTzUQyafyQ3M-tLoAho-21" value="&lt;span style=&quot;font-size: 18px;&quot;&gt;R&lt;/span&gt;&lt;span style=&quot;font-size: 15px;&quot;&gt;&lt;sub&gt;C&lt;/sub&gt;&lt;/span&gt;" style="text;html=1;strokeColor=none;fillColor=none;align=center;verticalAlign=middle;whiteSpace=wrap;rounded=0;" vertex="1" parent="1">
          <mxGeometry x="465" y="1370" width="60" height="30" as="geometry" />
        </mxCell>
        <mxCell id="ILTzUQyafyQ3M-tLoAho-23" value="&lt;span style=&quot;font-size: 18px;&quot;&gt;R&lt;/span&gt;&lt;span style=&quot;font-size: 15px;&quot;&gt;&lt;sub&gt;4&lt;/sub&gt;&lt;/span&gt;" style="text;html=1;strokeColor=none;fillColor=none;align=center;verticalAlign=middle;whiteSpace=wrap;rounded=0;" vertex="1" parent="1">
          <mxGeometry x="675" y="1370" width="60" height="30" as="geometry" />
        </mxCell>
        <mxCell id="ILTzUQyafyQ3M-tLoAho-24" value="&lt;span style=&quot;font-size: 18px;&quot;&gt;R&lt;/span&gt;&lt;span style=&quot;font-size: 15px;&quot;&gt;&lt;sub&gt;56&lt;/sub&gt;&lt;/span&gt;" style="text;html=1;strokeColor=none;fillColor=none;align=center;verticalAlign=middle;whiteSpace=wrap;rounded=0;" vertex="1" parent="1">
          <mxGeometry x="830" y="1330" width="60" height="30" as="geometry" />
        </mxCell>
        <mxCell id="ILTzUQyafyQ3M-tLoAho-25" value="&lt;span style=&quot;font-size: 18px;&quot;&gt;R&lt;/span&gt;&lt;span style=&quot;font-size: 12.5px;&quot;&gt;&lt;sub&gt;78&lt;/sub&gt;&lt;/span&gt;" style="text;html=1;strokeColor=none;fillColor=none;align=center;verticalAlign=middle;whiteSpace=wrap;rounded=0;" vertex="1" parent="1">
          <mxGeometry x="451" y="1550" width="49" height="30" as="geometry" />
        </mxCell>
        <mxCell id="ILTzUQyafyQ3M-tLoAho-26" value="" style="pointerEvents=1;verticalLabelPosition=bottom;shadow=0;dashed=0;align=center;html=1;verticalAlign=top;shape=mxgraph.electrical.resistors.resistor_1;" vertex="1" parent="1">
          <mxGeometry x="290" y="1330" width="100" height="20" as="geometry" />
        </mxCell>
        <mxCell id="ILTzUQyafyQ3M-tLoAho-32" style="edgeStyle=orthogonalEdgeStyle;rounded=0;orthogonalLoop=1;jettySize=auto;html=1;exitX=0.58;exitY=0.135;exitDx=0;exitDy=0;exitPerimeter=0;entryX=0;entryY=0.5;entryDx=0;entryDy=0;entryPerimeter=0;endArrow=oval;endFill=1;" edge="1" parent="1" source="ILTzUQyafyQ3M-tLoAho-1" target="ILTzUQyafyQ3M-tLoAho-26">
          <mxGeometry relative="1" as="geometry">
            <Array as="points">
              <mxPoint x="231" y="1340" />
            </Array>
          </mxGeometry>
        </mxCell>
        <mxCell id="ILTzUQyafyQ3M-tLoAho-33" value="&lt;font style=&quot;font-size: 18px;&quot;&gt;R&lt;sub&gt;A&lt;/sub&gt;&lt;/font&gt;" style="text;html=1;strokeColor=none;fillColor=none;align=center;verticalAlign=middle;whiteSpace=wrap;rounded=0;" vertex="1" parent="1">
          <mxGeometry x="310" y="1290" width="60" height="30" as="geometry" />
        </mxCell>
        <mxCell id="ILTzUQyafyQ3M-tLoAho-34" value="&lt;font style=&quot;font-size: 18px;&quot;&gt;A&lt;/font&gt;" style="text;html=1;strokeColor=none;fillColor=none;align=center;verticalAlign=middle;whiteSpace=wrap;rounded=0;" vertex="1" parent="1">
          <mxGeometry x="250" y="1310" width="60" height="30" as="geometry" />
        </mxCell>
        <mxCell id="ILTzUQyafyQ3M-tLoAho-35" value="&lt;font style=&quot;font-size: 18px;&quot;&gt;C&lt;/font&gt;" style="text;html=1;strokeColor=none;fillColor=none;align=center;verticalAlign=middle;whiteSpace=wrap;rounded=0;" vertex="1" parent="1">
          <mxGeometry x="570" y="1370" width="60" height="30" as="geometry" />
        </mxCell>
        <mxCell id="ILTzUQyafyQ3M-tLoAho-36" value="&lt;span style=&quot;font-size: 18px;&quot;&gt;B&lt;/span&gt;" style="text;html=1;strokeColor=none;fillColor=none;align=center;verticalAlign=middle;whiteSpace=wrap;rounded=0;" vertex="1" parent="1">
          <mxGeometry x="570" y="1240" width="60" height="30" as="geometry" />
        </mxCell>
        <mxCell id="ILTzUQyafyQ3M-tLoAho-37" value="&lt;font style=&quot;font-size: 18px;&quot;&gt;A&lt;/font&gt;" style="text;html=1;strokeColor=none;fillColor=none;align=center;verticalAlign=middle;whiteSpace=wrap;rounded=0;" vertex="1" parent="1">
          <mxGeometry x="320" y="780" width="60" height="30" as="geometry" />
        </mxCell>
        <mxCell id="ILTzUQyafyQ3M-tLoAho-38" value="&lt;font style=&quot;font-size: 18px;&quot;&gt;C&lt;/font&gt;" style="text;html=1;strokeColor=none;fillColor=none;align=center;verticalAlign=middle;whiteSpace=wrap;rounded=0;" vertex="1" parent="1">
          <mxGeometry x="530" y="1010" width="60" height="30" as="geometry" />
        </mxCell>
        <mxCell id="ILTzUQyafyQ3M-tLoAho-39" value="&lt;font style=&quot;font-size: 18px;&quot;&gt;B&lt;/font&gt;" style="text;html=1;strokeColor=none;fillColor=none;align=center;verticalAlign=middle;whiteSpace=wrap;rounded=0;" vertex="1" parent="1">
          <mxGeometry x="545" y="780" width="60" height="30" as="geometry" />
        </mxCell>
      </root>
    </mxGraphModel>
  </diagram>
</mxfile>
